<?xml version="1.0" standalone="no"?>
<!DOCTYPE svg PUBLIC "-//W3C//DTD SVG 20010904//EN"
 "http://www.w3.org/TR/2001/REC-SVG-20010904/DTD/svg10.dtd">
<svg version="1.0" xmlns="http://www.w3.org/2000/svg"
 width="400.000000pt" height="400.000000pt" viewBox="0 0 400.000000 400.000000"
 preserveAspectRatio="xMidYMid meet">

<g transform="translate(0.000000,400.000000) scale(0.100000,-0.100000)"
fill="#000000" stroke="none">
<path d="M1577 3920 c-72 -19 -105 -37 -48 -26 18 3 70 7 115 7 44 1 73 3 64
6 -21 5 -23 19 -5 26 32 14 -66 3 -126 -13z"/>
<path d="M1733 3923 c9 -2 23 -2 30 0 6 3 -1 5 -18 5 -16 0 -22 -2 -12 -5z"/>
<path d="M1920 3896 c0 -6 102 -38 107 -33 2 3 -17 12 -43 21 -48 16 -64 19
-64 12z"/>
<path d="M2043 3893 c11 -10 58 -13 52 -2 -4 5 -18 9 -32 9 -15 0 -23 -3 -20
-7z"/>
<path d="M1400 3878 c-29 -13 -67 -31 -130 -64 -100 -51 -291 -244 -290 -293
1 -9 10 2 22 23 23 46 183 206 204 206 8 0 14 4 14 8 0 11 123 82 142 82 9 0
21 7 28 15 7 8 15 13 19 10 4 -2 25 2 47 10 l39 14 -35 0 c-19 0 -46 -5 -60
-11z"/>
<path d="M2220 3835 c0 -2 24 -17 53 -31 28 -15 106 -63 172 -107 66 -44 111
-70 100 -58 -28 32 -179 133 -254 170 -65 32 -71 34 -71 26z"/>
<path d="M2080 3810 c0 -5 7 -10 15 -10 9 0 43 -18 77 -40 81 -54 86 -43 7 14
-60 44 -99 58 -99 36z"/>
<path d="M2058 3743 c-15 -27 -2 -181 31 -391 4 -29 5 -55 0 -57 -4 -3 19 -56
51 -118 32 -61 68 -141 80 -177 13 -36 30 -72 38 -80 17 -18 20 -30 -34 145
-20 66 -40 134 -44 150 -28 106 -52 187 -69 236 -11 31 -24 107 -30 173 -10
115 -14 136 -23 119z"/>
<path d="M2257 3596 c51 -86 69 -149 79 -273 4 -45 11 -80 15 -77 5 3 6 31 3
62 l-5 57 25 -29 c13 -16 29 -39 34 -50 47 -99 144 -361 162 -434 7 -29 15
-51 17 -48 6 5 -33 160 -47 186 -4 8 -10 27 -14 43 -8 34 11 36 46 4 27 -25
24 -1 44 -348 5 -80 3 -91 -20 -135 l-26 -49 2 35 c3 69 -13 120 -47 146 -54
40 -86 30 -137 -44 -18 -26 -40 -55 -49 -65 -42 -45 -58 -218 -23 -244 27 -19
39 -16 77 20 38 36 57 88 57 157 0 65 -9 90 -32 90 -17 0 -18 -2 -8 -16 11
-12 10 -18 -3 -32 -16 -15 -18 -15 -33 0 -32 32 29 88 95 88 44 0 55 -27 48
-122 -4 -44 -2 -78 3 -78 5 0 10 6 13 13 2 6 2 2 0 -11 -3 -19 0 -22 20 -17
25 7 54 -16 43 -34 -3 -5 1 -11 9 -15 8 -3 14 -2 13 2 -5 23 17 233 28 266 8
21 14 48 13 60 -1 14 -6 7 -14 -19 l-13 -40 -1 75 c0 41 -6 129 -12 196 l-12
120 -47 22 c-33 15 -52 32 -63 54 -30 65 -84 204 -91 233 -13 57 -111 238
-153 284 l-43 46 47 -79z m122 -1198 c27 16 31 15 31 -4 0 -25 -74 -15 -78 11
l-4 20 15 -20 c14 -17 19 -18 36 -7z m-2 16 c-3 -3 -12 -4 -19 -1 -8 3 -5 6 6
6 11 1 17 -2 13 -5z"/>
<path d="M1940 3614 c-17 -50 -7 -220 19 -344 11 -52 18 -96 16 -98 -2 -2 -16
16 -30 40 -15 23 -44 70 -65 103 -46 71 -56 105 -40 135 9 16 9 25 1 33 -8 8
-11 6 -11 -9 0 -20 -29 -107 -46 -136 -8 -14 -18 -8 -64 34 -30 27 -74 63 -98
79 -50 36 -48 42 29 119 29 27 46 50 40 50 -14 0 -121 -108 -121 -122 0 -6 -9
-8 -20 -5 -35 9 -21 -7 28 -31 26 -13 67 -41 92 -64 24 -22 55 -47 67 -55 13
-9 23 -22 23 -29 0 -18 -14 -18 -30 1 -7 8 -17 15 -23 15 -13 0 -145 108 -150
123 -5 17 -30 -10 -47 -53 -7 -19 -23 -51 -35 -70 -12 -19 -24 -43 -28 -53 -5
-13 -15 -17 -38 -15 -39 4 -46 -11 -18 -41 18 -20 19 -24 7 -39 -35 -41 -95
-280 -120 -478 -13 -100 -4 -218 26 -329 8 -32 14 -60 12 -62 -5 -5 -85 166
-105 225 -16 45 -19 76 -15 142 5 107 21 212 39 268 8 23 12 49 9 56 -3 8 -1
17 5 21 6 3 11 11 11 16 0 6 -7 4 -14 -4 -20 -19 -53 -189 -63 -318 -7 -96 -8
-100 -14 -54 -11 77 -10 260 2 360 12 103 62 320 84 361 8 15 12 31 9 36 -3 4
0 8 5 8 6 0 11 7 11 15 0 9 9 35 20 57 24 51 20 61 -7 16 -49 -85 -110 -293
-133 -453 -17 -123 -12 -369 10 -489 21 -116 42 -259 42 -291 1 -11 9 -54 19
-96 13 -53 16 -89 11 -120 l-8 -44 -21 80 c-11 44 -30 105 -42 135 -18 50 -20
52 -21 23 0 -18 -4 -54 -9 -80 -6 -26 -13 -70 -17 -98 -4 -29 -9 -42 -12 -30
-2 11 -24 83 -48 159 -24 77 -44 144 -44 150 0 5 14 -5 32 -23 36 -37 91 -69
82 -49 -3 7 -24 27 -47 43 -23 17 -54 51 -68 75 -25 40 -28 57 -32 153 -2 64
2 143 9 190 18 112 17 131 -4 87 -9 -19 -23 -57 -30 -85 -7 -27 -21 -72 -32
-100 -10 -27 -28 -84 -40 -125 -27 -92 -38 -121 -39 -99 -1 19 28 218 35 242
3 9 1 17 -5 17 -9 0 -50 -96 -91 -216 -21 -61 -74 -144 -78 -123 -1 8 4 35 12
62 8 27 10 49 5 53 -5 3 -9 3 -9 1 0 -2 -9 -46 -19 -98 -29 -138 -43 -317 -34
-433 l7 -101 7 76 c6 73 9 79 80 185 70 104 92 134 102 134 3 0 7 -53 10 -117
5 -132 23 -208 68 -300 33 -67 35 -96 5 -101 -15 -3 -18 1 -14 22 3 14 1 23
-3 20 -5 -3 -9 -19 -9 -36 0 -27 3 -30 24 -24 13 3 30 8 38 11 8 3 22 -12 37
-45 25 -52 42 -62 23 -13 -18 46 -20 149 -3 138 6 -3 15 4 22 16 10 20 9 21
-11 16 -21 -5 -22 -3 -17 35 8 58 20 65 43 21 10 -21 31 -53 47 -71 15 -18 25
-38 21 -44 -4 -6 1 -8 14 -4 17 6 34 -5 79 -47 74 -70 166 -148 170 -144 1 2
-20 47 -47 101 -45 86 -49 99 -35 112 8 9 20 12 27 8 7 -4 32 -9 55 -10 40 -1
42 0 37 22 -4 15 -2 24 6 24 7 0 10 -7 6 -15 -3 -8 -1 -15 4 -15 6 0 10 5 10
12 0 7 5 5 13 -4 6 -9 22 -19 34 -23 19 -5 22 -3 16 11 -5 13 -2 15 15 10 12
-4 49 -9 82 -11 54 -4 60 -2 60 15 0 12 7 20 18 20 14 0 15 -2 2 -10 -8 -5
-10 -10 -5 -10 6 0 17 6 24 13 8 7 11 7 8 1 -4 -7 6 -17 23 -24 17 -7 30 -16
30 -21 0 -5 9 -9 19 -9 11 0 23 -5 26 -10 3 -6 21 -17 38 -26 l32 -16 -38 40
c-25 25 -35 42 -28 47 6 3 8 11 5 17 -5 7 -1 9 9 5 9 -3 19 -2 22 3 4 6 1 10
-5 10 -7 0 -10 7 -6 15 3 9 -3 19 -14 25 -12 6 -20 7 -20 1 0 -5 5 -11 12 -13
7 -3 5 -7 -6 -11 -9 -4 -15 -3 -11 2 9 15 -15 24 -30 11 -11 -9 -17 -6 -29 12
-18 28 -63 127 -83 188 -53 151 -62 173 -62 151 -1 -29 32 -120 93 -261 25
-58 46 -106 46 -107 0 0 -25 24 -56 55 -71 72 -143 178 -201 296 -24 50 -48
99 -54 109 -18 33 -37 149 -29 176 5 14 18 69 30 121 23 104 62 211 116 324
20 41 9 45 -12 5 -9 -18 -25 -48 -35 -66 -11 -19 -19 -42 -19 -53 0 -11 -4
-20 -10 -20 -5 0 -10 -6 -10 -13 0 -7 -9 -31 -20 -53 l-21 -39 6 37 c6 40 33
121 59 180 13 31 14 36 1 32 -14 -6 -22 -25 -64 -149 -28 -82 -51 -221 -52
-319 -1 -44 -4 -92 -8 -106 -7 -22 -11 -16 -30 45 -49 156 -32 422 44 677 31
100 33 103 56 82 10 -9 19 -12 19 -7 0 6 -18 27 -41 48 -46 42 -44 58 4 31 44
-26 147 -106 174 -136 23 -25 30 -50 15 -50 -11 0 -78 49 -110 80 -13 12 -25
20 -28 17 -5 -5 53 -59 98 -92 27 -19 27 -21 13 -49 -8 -15 -15 -31 -15 -35 1
-13 33 37 67 104 20 39 57 102 84 141 26 39 54 87 62 106 22 52 34 54 59 11
12 -21 59 -91 103 -156 44 -65 95 -146 112 -180 35 -67 42 -65 18 3 -25 71
-85 304 -101 392 -8 46 -16 121 -19 167 -2 46 -6 86 -9 88 -2 2 -10 -13 -16
-33z m-364 -199 c10 -14 53 -49 94 -77 41 -28 76 -52 78 -53 2 -2 -6 -18 -17
-36 -12 -19 -25 -44 -30 -56 -6 -12 -22 -40 -36 -63 l-25 -40 -74 62 c-41 35
-83 70 -95 78 -20 15 -20 16 26 113 26 53 50 97 53 97 4 0 16 -11 26 -25z m62
-1524 c49 -37 69 -57 60 -61 -19 -11 -104 -20 -89 -10 10 5 3 10 -20 16 -19 4
-36 8 -39 8 -5 1 -101 56 -109 62 -2 2 1 16 7 31 5 15 13 36 16 45 4 15 10 14
53 -10 26 -15 81 -51 121 -81z m-295 0 c3 -15 0 -17 -17 -13 -13 3 -16 7 -7
10 11 4 11 6 0 13 -11 7 -11 9 2 9 9 0 19 -8 22 -19z m107 -31 c0 -11 -5 -22
-11 -26 -6 -4 -9 1 -8 12 2 11 0 25 -4 31 -6 9 -3 11 7 7 9 -3 16 -14 16 -24z
m-65 -40 c13 -26 13 -28 -5 -33 -11 -3 -23 -1 -26 5 -3 5 -16 7 -29 4 -19 -5
-22 -2 -17 19 5 28 23 32 42 10 21 -26 33 -17 15 11 -9 15 -12 23 -6 20 6 -4
18 -20 26 -36z m145 5 c7 -9 8 -15 2 -15 -5 0 -12 7 -16 15 -3 8 -4 15 -2 15
2 0 9 -7 16 -15z m35 -5 c3 -5 1 -10 -4 -10 -6 0 -11 5 -11 10 0 6 2 10 4 10
3 0 8 -4 11 -10z"/>
<path d="M1442 3593 c-30 -44 -64 -113 -59 -126 2 -6 20 19 40 56 21 36 42 69
47 72 6 3 10 10 10 16 0 18 -19 9 -38 -18z"/>
<path d="M2571 3613 c0 -5 14 -19 32 -32 l32 -25 -29 32 c-31 33 -36 37 -35
25z"/>
<path d="M1034 3543 c-16 -26 -28 -51 -26 -56 1 -5 -3 -15 -9 -23 -7 -8 -9
-17 -5 -21 3 -3 8 -4 9 -2 9 11 67 142 64 145 -2 2 -16 -17 -33 -43z"/>
<path d="M2670 3526 c0 -2 8 -10 18 -17 15 -13 16 -12 3 4 -13 16 -21 21 -21
13z"/>
<path d="M1035 3470 c-17 -50 -12 -108 6 -79 6 10 9 7 10 -11 0 -23 1 -23 9
-5 12 27 12 47 1 41 -5 -4 -6 9 -1 29 5 21 4 35 -2 35 -5 0 -6 9 -3 20 3 11 4
20 1 20 -2 0 -12 -22 -21 -50z"/>
<path d="M2671 3446 c19 -19 48 -48 63 -66 15 -18 29 -30 32 -27 11 11 -97
127 -117 127 -8 0 2 -15 22 -34z"/>
<path d="M930 3440 c-6 -11 -9 -20 -8 -20 2 0 11 9 21 20 9 11 13 20 7 20 -5
0 -14 -9 -20 -20z"/>
<path d="M1089 3346 c-21 -46 -39 -91 -39 -99 0 -9 -4 -18 -9 -21 -13 -9 -97
-210 -137 -332 -38 -114 -40 -161 -5 -79 13 28 47 102 77 166 30 63 54 119 54
123 0 4 6 22 14 39 17 39 48 132 71 212 10 33 20 63 22 68 2 4 1 7 -2 7 -3 0
-24 -38 -46 -84z"/>
<path d="M2670 3360 c0 -5 4 -10 8 -10 5 0 14 -10 20 -22 6 -13 11 -17 11 -10
1 19 -18 52 -29 52 -6 0 -10 -4 -10 -10z"/>
<path d="M848 3287 c-9 -18 -24 -52 -33 -77 -9 -25 -48 -92 -86 -150 -75 -114
-100 -161 -135 -259 -24 -67 -27 -97 -4 -39 23 56 121 253 130 258 7 5 49 73
90 145 23 43 63 145 58 150 -2 2 -11 -10 -20 -28z"/>
<path d="M885 3310 c-3 -6 1 -7 9 -4 18 7 21 14 7 14 -6 0 -13 -4 -16 -10z"/>
<path d="M2783 3257 c9 -13 26 -57 39 -98 20 -64 23 -95 23 -224 0 -148 -1
-151 -37 -252 -20 -56 -44 -115 -52 -130 l-16 -28 6 30 c3 17 10 44 15 60 22
69 23 355 1 355 -4 0 -7 -78 -7 -173 -1 -161 -2 -178 -29 -262 -16 -49 -32
-96 -37 -105 -5 -8 -27 -58 -50 -110 -23 -52 -48 -102 -56 -110 -11 -12 -11
-8 2 22 8 21 15 47 15 59 0 18 -7 14 -40 -24 -22 -25 -54 -50 -70 -57 -23 -9
-31 -21 -36 -49 -8 -45 -36 -101 -60 -122 -30 -25 -145 -92 -188 -110 -55 -22
-55 -34 2 -35 27 -1 62 -9 80 -18 31 -16 31 -16 62 22 l31 37 -5 -49 c-3 -27
-8 -51 -10 -54 -3 -2 8 -15 25 -29 16 -14 29 -31 29 -38 0 -7 6 -17 13 -24 10
-8 22 -1 52 29 22 22 43 40 47 40 4 0 8 -52 8 -115 l0 -115 -38 25 c-43 28
-63 26 -87 -12 -23 -35 -10 -41 19 -10 30 32 40 33 66 7 22 -22 26 -72 10
-115 -14 -37 0 -54 15 -19 7 16 20 38 28 48 14 19 15 19 31 -10 17 -28 14 -16
-7 36 -8 21 -5 35 16 77 27 52 33 56 99 67 55 10 102 67 121 150 12 54 24 76
59 114 24 26 66 83 93 126 l49 79 18 -39 18 -39 -6 45 c-3 25 -6 73 -6 108 -1
67 -12 82 -23 30 -14 -63 -104 -237 -105 -202 0 6 7 27 15 47 8 19 19 57 25
84 6 26 12 58 15 71 9 37 -12 25 -29 -19 -19 -46 -92 -149 -106 -149 -17 0
-11 24 13 60 13 19 31 55 41 80 21 53 47 214 39 238 -4 13 -3 14 6 6 6 -6 22
-41 35 -78 13 -37 27 -63 30 -57 4 6 4 49 0 96 -4 47 -4 85 0 85 8 0 68 -108
83 -150 7 -19 13 -45 13 -57 0 -13 5 -23 11 -23 7 0 9 10 5 25 -3 14 -9 37
-12 53 l-5 27 28 -30 c15 -17 36 -41 46 -55 l18 -25 -6 30 c-3 17 -59 138
-124 270 -65 132 -126 266 -135 298 -10 31 -20 57 -22 57 -3 0 -2 -24 0 -54 6
-55 27 -129 52 -178 24 -46 15 -55 -12 -13 -15 22 -36 50 -47 63 -19 20 -21
33 -18 155 1 94 -3 152 -14 202 -21 88 -52 162 -72 169 -14 6 -14 4 0 -17z
m32 -863 c8 -20 14 -60 14 -88 l-1 -51 -18 70 c-28 106 -25 140 5 69z m-61
-446 c-14 -130 -46 -218 -79 -218 -12 0 -13 4 -5 18 23 40 60 136 65 170 14
79 26 99 19 30z"/>
<path d="M2548 3238 c5 -7 13 -29 17 -48 5 -19 10 -29 12 -23 6 18 -17 83 -29
83 -7 0 -7 -4 0 -12z"/>
<path d="M2930 3234 c0 -6 7 -19 16 -30 14 -18 14 -18 3 6 -14 31 -19 36 -19
24z"/>
<path d="M823 3112 c-29 -59 -57 -127 -62 -152 -12 -54 -52 -153 -59 -145 -6
6 -89 -126 -115 -185 -11 -25 -23 -47 -27 -50 -4 -3 -9 -25 -12 -50 -6 -49 -2
-42 32 50 29 80 80 166 90 150 10 -17 141 252 175 360 15 47 31 95 36 108 5
12 5 22 1 22 -4 0 -30 -48 -59 -108z"/>
<path d="M2350 3050 c-1 -69 -5 -160 -8 -202 -5 -48 -4 -74 2 -68 10 10 22
342 13 375 -2 11 -6 -36 -7 -105z"/>
<path d="M2131 3102 c1 -35 6 -65 11 -68 12 -7 10 98 -2 116 -8 11 -10 -3 -9
-48z"/>
<path d="M2992 3127 c25 -45 93 -137 102 -137 5 0 2 8 -5 19 -8 10 -33 46 -57
80 -43 61 -64 81 -40 38z"/>
<path d="M2581 3103 c-1 -23 4 -45 9 -48 12 -7 12 29 0 65 -7 21 -8 19 -9 -17z"/>
<path d="M1098 3095 c-4 -16 -18 -68 -32 -114 -14 -46 -26 -100 -25 -120 1
-36 1 -36 16 14 26 86 54 218 50 234 -2 9 -6 3 -9 -14z"/>
<path d="M2955 3073 c9 -21 23 -48 31 -60 12 -19 20 -46 23 -75 1 -5 9 -16 19
-26 54 -54 105 -166 151 -330 20 -72 25 -38 6 40 -9 40 -32 106 -51 147 -19
41 -34 76 -34 79 0 3 11 -5 26 -19 18 -17 23 -19 18 -6 -3 9 -10 17 -14 17
-21 0 -74 72 -121 166 -51 100 -86 144 -54 67z"/>
<path d="M814 2900 c-37 -72 -75 -138 -84 -148 -9 -10 -33 -42 -54 -72 -21
-30 -43 -55 -49 -55 -7 0 -12 -9 -12 -20 0 -11 -4 -23 -9 -27 -32 -23 -76
-259 -76 -408 l1 -105 40 120 c22 66 63 163 90 215 56 105 69 123 69 96 0 -9
5 -14 10 -11 6 3 10 15 10 25 0 10 9 40 20 66 27 62 20 82 -9 26 -12 -24 -24
-42 -27 -39 -4 4 0 18 27 82 4 11 27 81 50 155 23 74 50 155 61 179 38 89 8
49 -58 -79z"/>
<path d="M2141 2994 c0 -11 3 -14 6 -6 3 7 2 16 -1 19 -3 4 -6 -2 -5 -13z"/>
<path d="M3115 2970 c3 -5 8 -10 11 -10 2 0 4 5 4 10 0 6 -5 10 -11 10 -5 0
-7 -4 -4 -10z"/>
<path d="M3140 2950 c0 -5 11 -12 25 -16 14 -3 23 -10 20 -14 -5 -8 73 4 82
13 3 4 -10 4 -29 1 -23 -4 -46 0 -66 10 -18 9 -32 12 -32 6z"/>
<path d="M2152 2910 c-1 -25 3 -63 7 -85 l9 -40 0 35 c0 19 -3 58 -8 85 l-7
50 -1 -45z"/>
<path d="M3114 2925 c14 -14 32 -25 41 -25 12 0 8 7 -13 25 -17 14 -35 25 -41
25 -7 0 -1 -11 13 -25z"/>
<path d="M2101 2925 c1 -19 18 -51 18 -35 0 8 -4 22 -9 30 -5 8 -9 11 -9 5z"/>
<path d="M2271 2870 c0 -8 4 -24 9 -35 5 -13 9 -14 9 -5 0 8 -4 24 -9 35 -5
13 -9 14 -9 5z"/>
<path d="M2122 2865 c0 -5 6 -26 13 -45 7 -19 14 -28 14 -20 0 8 -6 29 -14 45
-7 17 -13 26 -13 20z"/>
<path d="M1723 2825 c-28 -14 -70 -46 -92 -70 -43 -46 -50 -82 -31 -145 l7
-25 7 30 c15 60 29 85 68 120 73 66 98 66 172 -4 24 -22 37 -29 33 -18 -7 18
12 47 31 47 16 0 2 37 -24 65 -32 35 -101 35 -171 0z"/>
<path d="M3226 2785 c4 -8 11 -15 16 -15 6 0 5 6 -2 15 -7 8 -14 15 -16 15 -2
0 -1 -7 2 -15z"/>
<path d="M1518 2765 c-3 -14 -1 -25 3 -25 5 0 9 11 9 25 0 14 -2 25 -4 25 -2
0 -6 -11 -8 -25z"/>
<path d="M3187 2779 c7 -7 15 -10 18 -7 3 3 -2 9 -12 12 -14 6 -15 5 -6 -5z"/>
<path d="M2306 2715 c3 -33 11 -64 16 -70 13 -13 1 92 -13 114 -6 11 -7 -4 -3
-44z"/>
<path d="M1726 2743 l-30 -16 28 -14 c19 -10 26 -21 24 -36 -4 -28 -49 -35
-72 -12 -15 16 -18 13 -37 -30 -30 -68 -17 -146 34 -202 43 -47 115 -14 156
70 36 74 23 188 -26 233 -30 28 -38 29 -77 7z m44 -109 c0 -17 -22 -14 -28 4
-2 7 3 12 12 12 9 0 16 -7 16 -16z m-48 -126 c-16 -16 -15 -28 3 -28 8 0 15 8
16 18 0 15 1 14 8 -2 7 -19 8 -18 14 4 5 20 8 22 22 10 16 -13 15 -15 -1 -27
-21 -15 -62 -17 -83 -4 -12 8 -12 12 -2 25 8 9 18 16 24 16 7 0 7 -4 -1 -12z"/>
<path d="M3250 2756 c0 -2 7 -7 16 -10 8 -3 12 -2 9 4 -6 10 -25 14 -25 6z"/>
<path d="M2160 2743 c0 -4 5 -15 10 -23 8 -13 10 -13 10 2 0 9 -4 20 -10 23
-5 3 -10 3 -10 -2z"/>
<path d="M1521 2698 c0 -13 4 -32 9 -43 7 -15 9 -10 9 23 1 23 -3 42 -9 42 -5
0 -10 -10 -9 -22z"/>
<path d="M655 2699 c-4 -6 -5 -12 -2 -15 2 -3 7 2 10 11 7 17 1 20 -8 4z"/>
<path d="M562 2650 c0 -19 2 -27 5 -17 2 9 2 25 0 35 -3 9 -5 1 -5 -18z"/>
<path d="M636 2653 c-6 -14 -5 -15 5 -6 7 7 10 15 7 18 -3 3 -9 -2 -12 -12z"/>
<path d="M1015 2645 c-17 -13 -28 -25 -25 -28 3 -3 18 5 35 18 16 13 27 26 24
29 -3 3 -18 -6 -34 -19z"/>
<path d="M1538 2615 c-3 -5 -2 -35 4 -65 5 -30 12 -77 17 -105 4 -27 13 -59
20 -70 l12 -20 -5 20 c-6 26 -25 136 -34 200 -4 28 -10 46 -14 40z"/>
<path d="M3211 2484 c0 -11 3 -14 6 -6 3 7 2 16 -1 19 -3 4 -6 -2 -5 -13z"/>
<path d="M1580 2338 c0 -7 5 -20 10 -28 8 -12 10 -11 10 7 0 12 -4 25 -10 28
-5 3 -10 0 -10 -7z"/>
<path d="M3241 2270 c-2 -47 -6 -98 -10 -115 -6 -28 -8 -26 -14 20 -4 28 -14
61 -22 75 -18 32 -18 25 0 -25 8 -22 15 -62 15 -90 l2 -50 19 42 c16 35 19 60
16 135 l-3 93 -3 -85z"/>
<path d="M1600 2273 c0 -12 5 -25 10 -28 13 -8 13 15 0 35 -8 12 -10 11 -10
-7z"/>
<path d="M3110 2160 c0 -22 -9 -63 -20 -92 -23 -60 -19 -75 6 -27 16 32 33
159 20 159 -3 0 -6 -18 -6 -40z"/>
<path d="M2046 2097 c3 -10 9 -15 12 -12 3 3 0 11 -7 18 -10 9 -11 8 -5 -6z"/>
<path d="M3041 2034 c0 -11 3 -14 6 -6 3 7 2 16 -1 19 -3 4 -6 -2 -5 -13z"/>
<path d="M3016 1953 c-9 -25 -14 -48 -11 -51 2 -2 7 7 11 22 3 14 9 26 13 26
3 0 7 11 7 25 3 36 -2 31 -20 -22z"/>
<path d="M3051 1984 c0 -11 3 -14 6 -6 3 7 2 16 -1 19 -3 4 -6 -2 -5 -13z"/>
<path d="M1887 1835 c3 -8 9 -12 14 -9 12 7 11 11 -5 17 -10 4 -13 1 -9 -8z"/>
<path d="M1947 1839 c7 -7 15 -10 18 -7 3 3 -2 9 -12 12 -14 6 -15 5 -6 -5z"/>
<path d="M1045 1760 c-3 -5 -1 -10 4 -10 6 0 11 5 11 10 0 6 -2 10 -4 10 -3 0
-8 -4 -11 -10z"/>
<path d="M1107 1763 c-4 -3 -7 -11 -7 -17 0 -6 5 -5 12 2 6 6 9 14 7 17 -3 3
-9 2 -12 -2z"/>
<path d="M2348 1531 c-12 -4 -15 -10 -9 -20 8 -12 12 -12 25 2 18 18 10 28
-16 18z"/>
<path d="M2240 1451 c0 -5 9 -7 20 -4 11 3 20 7 20 9 0 2 -9 4 -20 4 -11 0
-20 -4 -20 -9z"/>
<path d="M2600 1441 c0 -5 5 -13 10 -16 6 -3 10 -2 10 4 0 5 -4 13 -10 16 -5
3 -10 2 -10 -4z"/>
<path d="M2660 1399 c-11 -20 -12 -20 -25 -2 -8 10 -4 -8 8 -39 12 -32 25 -58
30 -58 10 0 9 18 -4 42 -16 30 -3 71 21 65 11 -3 18 -1 14 4 -9 16 -33 10 -44
-12z"/>
<path d="M2721 1364 c-1 -6 6 -28 14 -48 8 -19 18 -55 20 -78 3 -24 10 -47 15
-52 4 -4 6 -15 3 -24 -4 -10 -2 -13 5 -8 7 4 12 15 12 25 0 9 5 22 11 28 8 8
5 13 -10 18 -12 3 -21 12 -22 18 0 17 -47 134 -48 121z"/>
<path d="M2546 1325 c3 -22 15 -65 26 -95 11 -30 24 -68 28 -85 5 -16 24 -77
44 -135 19 -58 38 -127 43 -155 5 -38 8 -43 11 -22 3 28 -42 228 -59 256 -6 9
-30 75 -55 146 -24 72 -42 112 -38 90z"/>
<path d="M2222 1325 c0 -16 2 -22 5 -12 2 9 2 23 0 30 -3 6 -5 -1 -5 -18z"/>
<path d="M1328 1293 c-16 -2 -28 -8 -28 -12 0 -4 -14 -6 -32 -5 -31 2 -68 -13
-68 -29 0 -4 5 -5 11 -1 7 4 30 8 53 9 55 3 58 4 52 14 -6 9 64 -1 82 -13 6
-4 35 -9 64 -11 58 -5 136 -26 213 -58 49 -20 108 -74 98 -90 -11 -18 -4 -135
10 -167 34 -79 131 -159 172 -144 10 4 21 1 26 -7 6 -10 9 -11 9 -1 0 8 9 10
28 6 l27 -6 -23 17 c-13 9 -30 14 -38 11 -17 -7 -74 47 -74 69 0 6 -9 22 -20
35 -11 13 -20 29 -20 37 0 8 -5 11 -10 8 -6 -3 -12 0 -15 7 -10 29 -13 126 -3
139 7 10 7 7 3 -10 -5 -15 -3 -21 3 -17 6 3 14 20 17 38 4 17 15 40 25 50 11
12 17 32 15 51 -2 26 -7 33 -32 38 -16 3 -36 9 -43 14 -9 5 -11 4 -6 -3 4 -7
4 -13 -1 -13 -36 -6 -70 -4 -81 4 -10 8 -16 7 -23 -4 -5 -8 -9 -9 -9 -3 0 16
-36 24 -48 12 -6 -6 -17 -6 -31 1 -13 8 -21 8 -21 2 0 -6 -7 -8 -15 -5 -8 4
-17 -1 -21 -10 -6 -14 -8 -14 -24 4 -11 13 -21 17 -25 10 -3 -5 -11 -10 -18
-10 -8 0 -8 3 1 12 19 19 14 31 -10 25 -12 -3 -30 -1 -41 5 -16 8 -19 7 -15
-3 4 -10 -3 -14 -22 -14 -16 0 -26 3 -23 8 2 4 0 7 -6 7 -5 0 -15 2 -23 3 -7
2 -25 2 -40 0z m369 -49 c-3 -3 -12 -4 -19 -1 -8 3 -5 6 6 6 11 1 17 -2 13 -5z
m73 -24 c0 -5 -2 -10 -4 -10 -3 0 -8 5 -11 10 -3 6 -1 10 4 10 6 0 11 -4 11
-10z m103 -31 c4 -3 0 -12 -9 -20 -16 -12 -17 -12 -12 2 4 9 -2 20 -13 28 -11
6 -17 16 -14 21 4 6 13 3 23 -7 9 -10 20 -21 25 -24z m-34 -49 c0 -10 -3 -8
-9 5 -12 27 -12 43 0 25 5 -8 9 -22 9 -30z m-22 -242 c-3 -8 -6 -5 -6 6 -1 11
2 17 5 13 3 -3 4 -12 1 -19z m53 7 c11 -13 10 -14 -4 -9 -9 3 -16 10 -16 15 0
13 6 11 20 -6z"/>
<path d="M2210 1280 c0 -5 5 -10 11 -10 5 0 7 5 4 10 -3 6 -8 10 -11 10 -2 0
-4 -4 -4 -10z"/>
<path d="M2166 1235 c-3 -9 0 -15 9 -15 9 0 12 6 9 15 -4 8 -7 15 -9 15 -2 0
-5 -7 -9 -15z"/>
<path d="M1001 1213 c0 -7 -11 -21 -23 -33 -17 -15 -18 -20 -6 -20 22 0 41 25
35 47 -3 10 -5 13 -6 6z"/>
<path d="M1474 1159 c4 -30 11 -67 15 -84 5 -16 16 -59 25 -95 9 -36 22 -87
30 -115 22 -81 76 -498 76 -587 0 -31 -16 -19 -28 21 -7 21 -19 44 -27 51 -8
7 -15 19 -15 26 0 8 -7 14 -15 14 -8 0 -15 9 -15 20 0 10 -6 23 -13 27 -6 4
-18 20 -26 35 -21 40 -27 25 -8 -19 55 -133 127 -348 127 -381 0 -25 26 -48
33 -30 4 10 6 10 6 1 2 -22 18 -14 17 7 -2 35 109 79 202 81 20 0 46 5 57 10
14 7 2 8 -40 4 -111 -9 -223 -39 -232 -62 -12 -31 -19 -9 -10 31 10 44 7 94
-23 456 -9 105 -9 135 4 185 26 100 46 234 46 308 0 39 -3 68 -6 64 -8 -7 -35
-125 -35 -150 0 -9 -4 -15 -9 -12 -4 3 -11 -11 -14 -30 -4 -19 -12 -35 -17
-35 -7 0 -8 -13 -4 -32 l6 -33 -14 30 c-21 45 -80 275 -79 307 0 15 -4 31 -10
34 -7 5 -8 -11 -4 -47z m126 -289 c-5 -22 -8 -27 -9 -13 -1 21 9 56 14 51 2
-2 0 -19 -5 -38z m-13 -62 c-3 -8 -6 -5 -6 6 -1 11 2 17 5 13 3 -3 4 -12 1
-19z m-7 -542 c-1 -6 -7 4 -15 23 -8 18 -15 38 -15 45 1 6 7 -4 15 -23 8 -18
15 -38 15 -45z m17 -50 c0 -17 -1 -24 -4 -16 -3 8 -9 22 -14 31 -5 10 -4 16 4
16 7 0 13 -14 14 -31z"/>
<path d="M2337 1171 c21 -22 44 -47 52 -56 7 -9 16 -13 19 -10 4 4 -2 13 -12
21 -11 8 -16 14 -11 14 5 0 -8 16 -28 35 -51 48 -68 44 -20 -4z"/>
<path d="M2844 1176 c16 -14 34 -26 40 -26 12 1 -17 26 -49 42 -12 6 -8 -1 9
-16z"/>
<path d="M937 1143 c-10 -9 -7 -64 3 -88 7 -16 9 -11 9 22 1 23 4 48 7 57 6
16 -7 22 -19 9z"/>
<path d="M2770 1115 c0 -14 2 -25 4 -25 2 0 6 11 8 25 3 14 1 25 -3 25 -5 0
-9 -11 -9 -25z"/>
<path d="M2876 1115 c-3 -9 -9 -14 -14 -11 -4 2 -8 -4 -8 -15 0 -10 3 -19 7
-19 8 0 31 51 26 57 -3 2 -7 -3 -11 -12z"/>
<path d="M2393 1082 c-10 -7 -10 -12 1 -27 12 -17 13 -17 18 8 5 28 1 32 -19
19z"/>
<path d="M942 1000 c0 -19 2 -27 5 -17 2 9 2 25 0 35 -3 9 -5 1 -5 -18z"/>
<path d="M1855 980 c3 -5 8 -10 11 -10 2 0 4 5 4 10 0 6 -5 10 -11 10 -5 0 -7
-4 -4 -10z"/>
<path d="M2387 967 c-4 -10 -7 -26 -7 -35 1 -15 2 -15 11 1 6 10 9 25 7 35 -3
16 -4 15 -11 -1z"/>
<path d="M936 918 c-4 -24 -9 -59 -13 -78 -10 -58 8 -26 22 39 7 33 9 65 5 71
-4 6 -10 -8 -14 -32z"/>
<path d="M2347 913 c-16 -19 -34 -73 -23 -73 7 0 47 82 43 87 -2 2 -11 -5 -20
-14z"/>
<path d="M736 839 c4 -8 40 -47 79 -87 38 -41 70 -81 71 -90 2 -31 16 -65 49
-116 55 -88 62 -135 29 -219 -3 -9 -1 -17 4 -17 16 0 75 197 91 298 12 81 -3
48 -28 -60 l-23 -97 -27 52 c-16 29 -38 70 -50 92 -20 35 -22 51 -18 125 2 47
2 77 0 68 -3 -14 -15 -18 -47 -18 -34 0 -48 6 -72 31 -33 35 -72 60 -58 38z
m134 -93 c0 -3 -4 -8 -10 -11 -5 -3 -10 -1 -10 4 0 6 5 11 10 11 6 0 10 -2 10
-4z"/>
<path d="M3210 842 c0 -5 10 -17 21 -28 22 -19 22 -19 10 3 -12 24 -31 39 -31
25z"/>
<path d="M696 823 c-6 -14 -5 -15 5 -6 7 7 10 15 7 18 -3 3 -9 -2 -12 -12z"/>
<path d="M2290 820 c-8 -5 -34 -10 -58 -10 -27 0 -50 -6 -60 -17 -16 -15 -15
-16 11 -11 31 6 37 -7 7 -15 -10 -3 -24 1 -31 9 -6 8 -18 14 -26 14 -13 0 -13
-2 -2 -17 13 -15 12 -15 -8 -5 -12 7 -27 12 -34 12 -15 0 32 -38 51 -40 32 -5
61 1 55 10 -3 6 -1 10 4 10 6 0 11 -7 11 -15 0 -22 43 -115 54 -115 12 0 -3
52 -21 72 -16 18 -10 74 7 63 5 -3 11 3 14 13 4 10 21 26 39 35 17 8 25 16 17
16 -8 0 -22 -4 -30 -9z"/>
<path d="M2770 804 c0 -16 -3 -38 -6 -50 -4 -13 -1 -21 8 -21 10 0 13 13 12
44 -2 50 -14 72 -14 27z"/>
<path d="M2706 750 c2 -30 -2 -129 -9 -220 -15 -183 -14 -199 13 -175 28 25
34 64 14 86 -15 17 -16 32 -7 151 8 104 7 142 -3 173 l-13 40 5 -55z m7 -352
l-11 -33 -1 45 c-1 33 2 41 11 32 8 -8 8 -20 1 -44z"/>
<path d="M690 766 c0 -12 5 -37 11 -54 10 -29 8 -34 -25 -67 -20 -20 -36 -40
-36 -46 0 -6 13 3 30 21 33 35 50 32 50 -8 0 -17 3 -23 10 -16 7 7 7 25 1 55
-29 133 -41 167 -41 115z"/>
<path d="M3271 725 c0 -11 9 -49 19 -85 16 -50 19 -56 15 -25 -6 50 -33 137
-34 110z"/>
<path d="M1745 698 c40 -98 50 -118 97 -193 44 -70 121 -146 134 -132 2 2 -10
21 -26 43 -17 21 -43 54 -58 73 -15 19 -32 40 -39 47 -7 6 -10 14 -7 17 4 3
-6 21 -20 40 -14 19 -26 39 -26 44 0 6 -7 13 -15 17 -8 3 -15 11 -15 18 0 7
-10 24 -21 38 l-20 25 16 -37z"/>
<path d="M2765 680 c-4 -17 -5 -34 -2 -36 2 -3 7 10 11 27 8 42 0 50 -9 9z"/>
<path d="M3203 635 c0 -27 2 -38 4 -22 2 15 2 37 0 50 -2 12 -4 0 -4 -28z"/>
<path d="M2752 545 c0 -16 2 -22 5 -12 2 9 2 23 0 30 -3 6 -5 -1 -5 -18z"/>
<path d="M3181 492 c-7 -46 -15 -91 -17 -100 -5 -14 -4 -15 4 -2 14 22 34 133
30 161 -2 13 -10 -14 -17 -59z"/>
<path d="M3313 530 c0 -25 2 -35 4 -22 2 12 2 32 0 45 -2 12 -4 2 -4 -23z"/>
<path d="M2345 521 c26 -5 30 -11 33 -41 4 -46 -47 -108 -98 -120 -28 -6 -30
-8 -10 -9 39 -1 83 32 110 82 20 39 22 49 12 71 -9 21 -18 26 -44 25 l-33 -1
30 -7z"/>
<path d="M2263 506 c-81 -45 -113 -130 -56 -150 17 -6 17 -5 -1 8 -14 12 -17
23 -12 49 7 39 30 63 84 88 20 10 30 17 22 17 -8 0 -25 -6 -37 -12z"/>
<path d="M2730 463 c0 -14 19 -38 25 -32 8 8 -5 39 -16 39 -5 0 -9 -3 -9 -7z"/>
<path d="M2578 410 c-4 -19 -11 -57 -17 -85 -5 -27 -13 -66 -16 -85 l-6 -35
15 32 c20 43 39 141 34 178 l-4 30 -6 -35z"/>
<path d="M2704 314 c-4 -14 -3 -54 1 -87 4 -34 7 -74 6 -89 0 -18 5 -28 15
-28 15 0 14 5 -7 90 -11 45 -9 111 4 128 6 8 6 12 -2 12 -6 0 -14 -12 -17 -26z"/>
<path d="M2320 317 c0 -10 9 -35 19 -55 10 -20 29 -71 41 -112 35 -121 60
-156 60 -86 0 19 4 36 10 38 6 2 0 22 -12 47 -18 37 -23 41 -29 25 -7 -17 -8
-17 -10 -1 -3 32 -27 86 -59 132 -15 22 -20 25 -20 12z m107 -204 c-3 -10 -5
-4 -5 12 0 17 2 24 5 18 2 -7 2 -21 0 -30z"/>
<path d="M2520 181 c0 -6 5 -13 10 -16 6 -3 10 1 10 9 0 9 -4 16 -10 16 -5 0
-10 -4 -10 -9z"/>
<path d="M1965 160 c-27 -7 -28 -8 -5 -8 14 0 34 3 45 8 25 11 2 11 -40 0z"/>
<path d="M2050 157 c0 -3 9 -26 20 -52 11 -26 20 -60 20 -76 0 -16 5 -29 10
-29 24 0 -6 126 -36 151 -8 6 -14 9 -14 6z"/>
<path d="M2498 117 l-18 -42 20 25 c16 20 28 60 18 60 -2 0 -11 -19 -20 -43z"/>
</g>
</svg>
